<svg width="25" height="25" viewBox="0 0 25 25" fill="none" xmlns="http://www.w3.org/2000/svg">
<g id="account-settings_svgrepo.com">
<path id="Vector" d="M9.99967 3.45827C9.20399 3.45827 8.42619 3.69435 7.76474 4.13663C7.10329 4.57891 6.58794 5.20749 6.28392 5.94281C5.9799 6.67813 5.90089 7.48712 6.05688 8.26736C6.21287 9.04761 6.59685 9.76404 7.16022 10.3259C7.72359 10.8878 8.441 11.27 9.22165 11.4239C10.0023 11.5779 10.8111 11.4968 11.5456 11.1909C12.2801 10.8849 12.9074 10.368 13.3479 9.70537C13.7885 9.04278 14.0226 8.26437 14.0205 7.46868C14.0205 6.94115 13.9164 6.4188 13.7142 5.93155C13.512 5.44431 13.2157 5.00174 12.8422 4.6292C12.4687 4.25666 12.0254 3.96147 11.5376 3.76055C11.0498 3.55962 10.5272 3.4569 9.99967 3.45827ZM17.0309 11.4583C16.9691 11.4595 16.9095 11.4819 16.8621 11.5217C16.8147 11.5615 16.7824 11.6163 16.7705 11.677L16.583 12.9999C16.2832 13.1269 15.997 13.284 15.7288 13.4687L14.4788 12.9687C14.4192 12.9586 14.358 12.966 14.3025 12.9901C14.2471 13.0141 14.1998 13.0537 14.1663 13.1041L13.1247 14.8333C13.0943 14.8855 13.0838 14.9471 13.0953 15.0064C13.1068 15.0658 13.1395 15.119 13.1872 15.1562L14.2288 15.9791C14.1846 16.3249 14.1846 16.675 14.2288 17.0208L13.1872 17.8437C13.1402 17.879 13.108 17.9304 13.0964 17.988C13.0849 18.0456 13.095 18.1055 13.1247 18.1562L14.1663 19.8958C14.2288 20.0312 14.3643 20.0312 14.4788 20.0312L15.7288 19.5208C15.9929 19.7148 16.2798 19.8757 16.583 19.9999L16.7705 21.3228C16.7807 21.3835 16.8129 21.4383 16.8609 21.4768C16.909 21.5152 16.9695 21.5346 17.0309 21.5312H19.0413C19.0992 21.5296 19.1548 21.5079 19.1984 21.4699C19.2421 21.4319 19.2713 21.3799 19.2809 21.3228L19.4684 19.9999C19.764 19.8668 20.0464 19.7064 20.3122 19.5208L21.5518 20.0312C21.6768 20.0312 21.8122 20.0312 21.8851 19.8958L22.9268 18.1562C22.9565 18.1055 22.9665 18.0456 22.955 17.988C22.9435 17.9304 22.9112 17.879 22.8643 17.8437L21.8226 17.0208C21.833 16.8508 21.833 16.6803 21.8226 16.5103C21.8376 16.344 21.8376 16.1767 21.8226 16.0103L22.8643 15.1874C22.9102 15.149 22.9416 15.0959 22.9529 15.0371C22.9643 14.9783 22.9551 14.9173 22.9268 14.8645L21.8851 13.1353C21.8226 12.9999 21.6872 12.9999 21.5622 12.9999L20.3122 13.5416C20.0464 13.353 19.7598 13.1958 19.458 13.0728L19.2705 11.7499C19.2655 11.6918 19.2394 11.6375 19.1972 11.5973C19.1551 11.557 19.0996 11.5335 19.0413 11.5312H17.1455M10.1143 13.5416C5.67676 13.5416 2.08301 15.3124 2.08301 17.5312V19.5312H11.8018C11.3633 18.6048 11.1358 17.5926 11.1358 16.5676C11.1358 15.5427 11.3633 14.5305 11.8018 13.6041C11.241 13.5496 10.6775 13.5288 10.1143 13.5416ZM18.0309 15.0312C18.2391 15.0138 18.4486 15.0399 18.6463 15.1077C18.8439 15.1754 19.0253 15.2835 19.179 15.4249C19.3327 15.5664 19.4555 15.7382 19.5394 15.9295C19.6233 16.1208 19.6667 16.3275 19.6667 16.5364C19.6667 16.7453 19.6233 16.9519 19.5394 17.1433C19.4555 17.3346 19.3327 17.5064 19.179 17.6478C19.0253 17.7893 18.8439 17.8973 18.6463 17.9651C18.4486 18.0329 18.2391 18.0589 18.0309 18.0416C17.6533 18.0102 17.3014 17.838 17.0448 17.5591C16.7882 17.2803 16.6458 16.9153 16.6458 16.5364C16.6458 16.1575 16.7882 15.7924 17.0448 15.5136C17.3014 15.2348 17.6533 15.0626 18.0309 15.0312Z" fill="#DCD7C9"/>
</g>
</svg>
