<svg width="37" height="37" viewBox="0 0 37 37" fill="none" xmlns="http://www.w3.org/2000/svg">
<g id="album-2_svgrepo.com" clip-path="url(#clip0_277_1531)">
<g id="&#233;&#161;&#181;&#233;&#157;&#162;-1">
<g id="File">
<g id="album_line">
<path id="&#229;&#189;&#162;&#231;&#138;&#182;" fill-rule="evenodd" clip-rule="evenodd" d="M9.25006 4.625C8.39862 4.625 7.7084 5.31524 7.7084 6.16667C7.7084 7.0181 8.39862 7.70833 9.25006 7.70833H27.7501C28.6016 7.70833 29.2918 7.0181 29.2918 6.16667C29.2918 5.31524 28.6016 4.625 27.7501 4.625H9.25006ZM6.44494 9.25C4.53963 9.25 3.09032 10.9608 3.40356 12.8402L5.97301 28.2569C6.22078 29.7437 7.50713 30.8333 9.01437 30.8333H27.9857C29.493 30.8333 30.7793 29.7437 31.0271 28.2569L33.5966 12.8402C33.9098 10.9608 32.4605 9.25 30.5552 9.25H6.44494ZM6.44494 12.3333H30.5552L27.9857 27.75H9.01437L6.44494 12.3333Z" fill="#6A9C89"/>
</g>
</g>
</g>
</g>
<defs>
<clipPath id="clip0_277_1531">
<rect width="37" height="37" fill="white"/>
</clipPath>
</defs>
</svg>
