<svg width="28" height="28" viewBox="0 0 28 28" fill="none" xmlns="http://www.w3.org/2000/svg">
<g id="close_svgrepo.com">
<path id="Vector" d="M21.9084 3.74673C21.5105 3.34879 20.8653 3.34879 20.4674 3.74673L13.0345 11.1796L5.60159 3.74673C5.20365 3.34879 4.55846 3.34879 4.16052 3.74673C3.76257 4.14467 3.76257 4.78986 4.16052 5.1878L11.5934 12.6207L4.16054 20.0535C3.76259 20.4515 3.76259 21.0967 4.16054 21.4947C4.55848 21.8926 5.20367 21.8926 5.60161 21.4947L13.0345 14.0618L20.4674 21.4947C20.8653 21.8926 21.5105 21.8926 21.9084 21.4947C22.3064 21.0967 22.3064 20.4515 21.9084 20.0536L14.4755 12.6207L21.9084 5.1878C22.3064 4.78986 22.3064 4.14467 21.9084 3.74673Z" fill="white"/>
</g>
</svg>
