<svg width="28" height="28" viewBox="0 0 28 28" fill="none" xmlns="http://www.w3.org/2000/svg">
<g id="explore_svgrepo.com" clip-path="url(#clip0_277_1478)">
<path id="Vector" d="M14 28C10.287 28 6.72601 26.525 4.1005 23.8995C1.475 21.274 0 17.713 0 14C0 10.287 1.475 6.72601 4.1005 4.1005C6.72601 1.475 10.287 0 14 0C17.713 0 21.274 1.475 23.8995 4.1005C26.525 6.72601 28 10.287 28 14C28 17.713 26.525 21.274 23.8995 23.8995C21.274 26.525 17.713 28 14 28ZM11.032 11.032L6.076 21.924L16.968 16.968L21.924 6.076L11.032 11.032ZM14 15.4C13.6287 15.4 13.2726 15.2525 13.0101 14.9899C12.7475 14.7274 12.6 14.3713 12.6 14C12.6 13.6287 12.7475 13.2726 13.0101 13.0101C13.2726 12.7475 13.6287 12.6 14 12.6C14.3713 12.6 14.7274 12.7475 14.9899 13.0101C15.2525 13.2726 15.4 13.6287 15.4 14C15.4 14.3713 15.2525 14.7274 14.9899 14.9899C14.7274 15.2525 14.3713 15.4 14 15.4Z" fill="#6A9C89"/>
</g>
<defs>
<clipPath id="clip0_277_1478">
<rect width="28" height="28" fill="white"/>
</clipPath>
</defs>
</svg>
