<svg width="33" height="33" viewBox="0 0 33 33" fill="none" xmlns="http://www.w3.org/2000/svg">
<g id="favorite-profile_svgrepo.com">
<path id="Vector" d="M2.75 28.8751H13.75C14.1147 28.8751 14.4644 28.7303 14.7223 28.4724C14.9801 28.2145 15.125 27.8648 15.125 27.5001C15.125 27.1355 14.9801 26.7857 14.7223 26.5279C14.4644 26.27 14.1147 26.1251 13.75 26.1251H4.22263C4.55628 23.8355 5.70231 21.7423 7.45147 20.2276C9.20062 18.713 11.4362 17.878 13.75 17.8751C15.369 17.8892 16.942 17.3363 18.1962 16.3124C19.4504 15.2885 20.3068 13.8581 20.6171 12.269C20.9274 10.6799 20.6719 9.03232 19.895 7.61182C19.118 6.19132 17.8686 5.08741 16.3632 4.4914C14.8578 3.89539 13.1913 3.84485 11.6526 4.34854C10.1138 4.85223 8.79977 5.8784 7.93818 7.24921C7.07659 8.62002 6.72175 10.2491 6.93516 11.854C7.14856 13.459 7.91676 14.9387 9.10663 16.0368C6.82441 16.9626 4.86993 18.5476 3.49278 20.5895C2.11564 22.6313 1.37832 25.0373 1.375 27.5001C1.375 27.8648 1.51987 28.2145 1.77773 28.4724C2.03559 28.7303 2.38533 28.8751 2.75 28.8751ZM13.75 6.87513C14.5658 6.87513 15.3634 7.11706 16.0417 7.57032C16.7201 8.02358 17.2488 8.66782 17.561 9.42157C17.8732 10.1753 17.9549 11.0047 17.7957 11.8049C17.6366 12.6051 17.2437 13.3401 16.6668 13.917C16.0899 14.4938 15.3549 14.8867 14.5547 15.0459C13.7546 15.205 12.9252 15.1234 12.1714 14.8111C11.4177 14.4989 10.7734 13.9702 10.3202 13.2919C9.86693 12.6135 9.625 11.816 9.625 11.0001C9.625 9.90612 10.0596 8.85691 10.8332 8.08332C11.6068 7.30973 12.656 6.87513 13.75 6.87513ZM20.7419 23.5415C20.152 20.72 21.8872 19.2501 23.6816 19.2501C24.1517 19.2134 24.6234 19.2983 25.0513 19.4964C25.4792 19.6946 25.8489 19.9995 26.125 20.3818C26.4011 19.9995 26.7708 19.6946 27.1987 19.4964C27.6266 19.2983 28.0983 19.2134 28.5684 19.2501C30.3559 19.2501 32.098 20.72 31.5081 23.5415C30.91 26.4001 26.125 28.8751 26.125 28.8751C26.125 28.8751 21.34 26.4001 20.7419 23.5415Z" fill="#6A9C89"/>
</g>
</svg>
