<svg width="17" height="17" viewBox="0 0 17 17" fill="none" xmlns="http://www.w3.org/2000/svg">
<g id="fi:more-vertical">
<path id="Vector" d="M8.10728 14.2041C8.47619 14.2041 8.77524 13.905 8.77524 13.5361C8.77524 13.1672 8.47619 12.8682 8.10728 12.8682C7.73838 12.8682 7.43933 13.1672 7.43933 13.5361C7.43933 13.905 7.73838 14.2041 8.10728 14.2041Z" stroke="#FCFCFC" stroke-width="1.33591" stroke-linecap="round" stroke-linejoin="round"/>
<path id="Vector_2" d="M8.10728 9.52835C8.47619 9.52835 8.77524 9.2293 8.77524 8.8604C8.77524 8.4915 8.47619 8.19244 8.10728 8.19244C7.73838 8.19244 7.43933 8.4915 7.43933 8.8604C7.43933 9.2293 7.73838 9.52835 8.10728 9.52835Z" stroke="#FCFCFC" stroke-width="1.33591" stroke-linecap="round" stroke-linejoin="round"/>
<path id="Vector_3" d="M8.10728 4.85269C8.47619 4.85269 8.77524 4.55364 8.77524 4.18474C8.77524 3.81584 8.47619 3.51678 8.10728 3.51678C7.73838 3.51678 7.43933 3.81584 7.43933 4.18474C7.43933 4.55364 7.73838 4.85269 8.10728 4.85269Z" stroke="#FCFCFC" stroke-width="1.33591" stroke-linecap="round" stroke-linejoin="round"/>
</g>
</svg>
