<svg width="92" height="92" viewBox="0 0 92 92" fill="none" xmlns="http://www.w3.org/2000/svg">
<g id="fi:music">
<path id="Vector" d="M23.6713 79.919C29.9426 79.919 35.0265 74.8351 35.0265 68.5638C35.0265 62.2925 29.9426 57.2086 23.6713 57.2086C17.3999 57.2086 12.316 62.2925 12.316 68.5638C12.316 74.8351 17.3999 79.919 23.6713 79.919Z" stroke="#C7C7C7" stroke-width="5.34363" stroke-linecap="round" stroke-linejoin="round"/>
<path id="Vector_2" d="M35.0265 68.5638V19.3579L80.4473 11.7877V60.9936" stroke="#C7C7C7" stroke-width="5.34363" stroke-linecap="round" stroke-linejoin="round"/>
<path id="Vector_3" d="M69.0921 72.3488C75.3635 72.3488 80.4474 67.2649 80.4474 60.9936C80.4474 54.7223 75.3635 49.6384 69.0921 49.6384C62.8208 49.6384 57.7369 54.7223 57.7369 60.9936C57.7369 67.2649 62.8208 72.3488 69.0921 72.3488Z" stroke="#C7C7C7" stroke-width="5.34363" stroke-linecap="round" stroke-linejoin="round"/>
</g>
</svg>
