<svg width="30" height="30" viewBox="0 0 30 30" fill="none" xmlns="http://www.w3.org/2000/svg">
<g id="log-out-exit_svgrepo.com">
<path id="Vector" fill-rule="evenodd" clip-rule="evenodd" d="M23.6522 13.5937H8.64941C7.87316 13.5937 7.24316 14.2237 7.24316 15C7.24316 15.7762 7.87316 16.4062 8.64941 16.4062H23.685L20.7657 19.3256C20.2172 19.874 20.2172 20.7656 20.7657 21.314C21.315 21.8634 22.2057 21.8634 22.755 21.314C22.755 21.314 25.1616 18.9075 26.7319 17.3371C28.0135 16.0556 28.0135 13.9781 26.7319 12.6965L22.755 8.7187C22.2057 8.17026 21.315 8.17026 20.7657 8.7187C20.2172 9.26808 20.2172 10.1587 20.7657 10.7081L23.6522 13.5937Z" fill="#6A9C89"/>
<path id="Vector_2" fill-rule="evenodd" clip-rule="evenodd" d="M18.75 22.5V18.2812H8.64937C6.83812 18.2812 5.36812 16.8112 5.36812 15C5.36812 13.1888 6.83812 11.7188 8.64937 11.7188H18.75V7.5C18.75 4.91156 16.6509 2.8125 14.0625 2.8125C12.0319 2.8125 9.53062 2.8125 7.5 2.8125C6.25688 2.8125 5.06438 3.30656 4.185 4.185C3.30656 5.06438 2.8125 6.25688 2.8125 7.5C2.8125 11.6616 2.8125 18.3384 2.8125 22.5C2.8125 23.7431 3.30656 24.9356 4.185 25.815C5.06438 26.6934 6.25688 27.1875 7.5 27.1875C9.53062 27.1875 12.0319 27.1875 14.0625 27.1875C15.3056 27.1875 16.4981 26.6934 17.3775 25.815C18.2559 24.9356 18.75 23.7431 18.75 22.5Z" fill="#6A9C89"/>
</g>
</svg>
