<svg width="14" height="14" viewBox="0 0 14 14" fill="none" xmlns="http://www.w3.org/2000/svg">
<g id="Icon feather-music">
<path id="Path 131" d="M5.09656 10.6696V2.02609L12.9741 0.696655V9.34013" stroke="#F4385A" stroke-width="1.00193" stroke-linecap="round" stroke-linejoin="round"/>
<path id="Path 132" d="M5.09595 10.6682C5.09595 11.0627 4.98045 11.4483 4.76405 11.7763C4.54765 12.1043 4.24008 12.36 3.88023 12.5109C3.52037 12.6619 3.1244 12.7014 2.74238 12.6244C2.36037 12.5475 2.00946 12.3575 1.73404 12.0786C1.45862 11.7996 1.27106 11.4442 1.19507 11.0573C1.11908 10.6704 1.15808 10.2693 1.30714 9.90487C1.45619 9.54041 1.70861 9.2289 2.03247 9.00973C2.35633 8.79056 2.73708 8.67358 3.12659 8.67358C3.64889 8.67358 4.14981 8.88373 4.51913 9.25778C4.88846 9.63184 5.09595 10.1392 5.09595 10.6682Z" stroke="#F4385A" stroke-width="1.00193" stroke-linecap="round" stroke-linejoin="round"/>
<path id="Path 133" d="M12.9725 9.1042C12.9725 9.49869 12.857 9.88433 12.6406 10.2123C12.4242 10.5403 12.1166 10.796 11.7568 10.947C11.3969 11.0979 11.0009 11.1374 10.6189 11.0605C10.2369 10.9835 9.88595 10.7935 9.61052 10.5146C9.33509 10.2356 9.14752 9.88024 9.07153 9.49333C8.99554 9.10641 9.03455 8.70537 9.18361 8.34091C9.33267 7.97645 9.58509 7.66493 9.90896 7.44577C10.2328 7.2266 10.6136 7.10962 11.0031 7.10962C11.5254 7.10962 12.0264 7.31976 12.3957 7.69382C12.765 8.06788 12.9725 8.57521 12.9725 9.1042V9.1042Z" stroke="#F4385A" stroke-width="1.00193" stroke-linecap="round" stroke-linejoin="round"/>
</g>
</svg>
