<svg width="26" height="25" viewBox="0 0 26 25" fill="none" xmlns="http://www.w3.org/2000/svg">
<g id="password_svgrepo.com">
<path id="Vector" fill-rule="evenodd" clip-rule="evenodd" d="M3.34685 5.38713C2.12646 6.60753 2.12646 8.57171 2.12646 12.5001C2.12646 16.4284 2.12646 18.3927 3.34685 19.613C4.56725 20.8334 6.53142 20.8334 10.4598 20.8334H14.6265C18.5548 20.8334 20.5191 20.8334 21.7394 19.613C22.9598 18.3927 22.9598 16.4284 22.9598 12.5001C22.9598 8.57171 22.9598 6.60753 21.7394 5.38713C20.5191 4.16675 18.5548 4.16675 14.6265 4.16675H10.4598C6.53142 4.16675 4.56725 4.16675 3.34685 5.38713ZM13.3246 10.4167C13.3246 9.98528 12.9748 9.6355 12.5433 9.6355C12.1119 9.6355 11.7621 9.98528 11.7621 10.4167V11.1472L11.1294 10.7819C10.7557 10.5661 10.2779 10.6941 10.0622 11.0678C9.84646 11.4414 9.97448 11.9192 10.3481 12.135L10.9803 12.5L10.3479 12.8652C9.97424 13.0809 9.84621 13.5587 10.0619 13.9324C10.2777 14.306 10.7555 14.434 11.1292 14.2183L11.7621 13.8529V14.5834C11.7621 15.0149 12.1119 15.3647 12.5433 15.3647C12.9748 15.3647 13.3246 15.0149 13.3246 14.5834V13.8535L13.9566 14.2183C14.3302 14.434 14.808 14.306 15.0238 13.9324C15.2395 13.5587 15.1115 13.0809 14.7378 12.8652L14.1053 12.5L14.7376 12.135C15.1113 11.9192 15.2393 11.4414 15.0235 11.0678C14.8078 10.6941 14.33 10.5661 13.9564 10.7819L13.3246 11.1465V10.4167ZM7.05632 9.6355C7.48779 9.6355 7.83757 9.98528 7.83757 10.4167V11.1465L8.46928 10.7819C8.84294 10.5661 9.32075 10.6941 9.53649 11.0678C9.75223 11.4414 9.62419 11.9192 9.25053 12.135L8.61831 12.5L9.25078 12.8652C9.62444 13.0809 9.75247 13.5587 9.53674 13.9324C9.321 14.306 8.84319 14.434 8.46953 14.2183L7.83757 13.8535V14.5834C7.83757 15.0149 7.48779 15.3647 7.05632 15.3647C6.62484 15.3647 6.27507 15.0149 6.27507 14.5834V13.8529L5.64209 14.2183C5.26842 14.434 4.79062 14.306 4.57488 13.9324C4.35914 13.5587 4.48717 13.0809 4.86084 12.8652L5.49331 12.5L4.86108 12.135C4.48742 11.9192 4.35939 11.4414 4.57513 11.0678C4.79086 10.6941 5.26867 10.5661 5.64233 10.7819L6.27507 11.1472V10.4167C6.27507 9.98528 6.62484 9.6355 7.05632 9.6355ZM18.812 10.4167C18.812 9.98528 18.4622 9.6355 18.0307 9.6355C17.5993 9.6355 17.2495 9.98528 17.2495 10.4167V11.1472L16.6167 10.7819C16.243 10.5661 15.7652 10.6941 15.5495 11.0678C15.3338 11.4414 15.4618 11.9192 15.8354 12.135L16.4677 12.5L15.8352 12.8652C15.4616 13.0809 15.3335 13.5587 15.5493 13.9324C15.765 14.306 16.2428 14.434 16.6165 14.2183L17.2495 13.8529V14.5834C17.2495 15.0149 17.5993 15.3647 18.0307 15.3647C18.4622 15.3647 18.812 15.0149 18.812 14.5834V13.8535L19.4439 14.2183C19.8176 14.434 20.2954 14.306 20.5112 13.9324C20.7269 13.5587 20.5989 13.0809 20.2251 12.8652L19.5927 12.5L20.2249 12.135C20.5986 11.9192 20.7266 11.4414 20.5108 11.0678C20.2951 10.6941 19.8173 10.5661 19.4437 10.7819L18.812 11.1465V10.4167Z" fill="white"/>
</g>
</svg>
