<svg width="26" height="26" viewBox="0 0 26 26" fill="none" xmlns="http://www.w3.org/2000/svg">
<g id="pdf_svgrepo.com">
<path id="Vector" d="M6.84131 3.89771C6.49756 3.89771 6.21631 4.17896 6.21631 4.52271V21.7685C6.21631 22.1123 6.49756 22.3935 6.84131 22.3935H19.1684C19.5121 22.3935 19.7934 22.1123 19.7934 21.7685V7.70396L15.9871 3.89771H6.84131ZM14.958 5.14771V7.95604C14.958 8.37062 15.2976 8.71021 15.7121 8.71021H18.5434V21.1435H7.46631V5.14771H14.958Z" fill="white"/>
<path id="Vector_2" d="M8.79541 16.556H17.0204V17.5977H8.79541V16.556ZM8.79541 13.9602H17.0204V15.0019H8.79541V13.9602ZM8.79541 11.3665H17.0204V12.4081H8.79541V11.3665Z" fill="white"/>
<path id="Vector_3" d="M10.2578 9.75806C10.9482 9.75806 11.5078 9.19841 11.5078 8.50806C11.5078 7.8177 10.9482 7.25806 10.2578 7.25806C9.56746 7.25806 9.00781 7.8177 9.00781 8.50806C9.00781 9.19841 9.56746 9.75806 10.2578 9.75806Z" fill="white"/>
</g>
</svg>
