<svg width="37" height="37" viewBox="0 0 37 37" fill="none" xmlns="http://www.w3.org/2000/svg">
<g id="playlist-minimalistic-3_svgrepo.com">
<path id="Vector" d="M12.3333 21.5833H4.625" stroke="#6A9C89" stroke-width="2.3125" stroke-linecap="round"/>
<path id="Vector_2" d="M18.5 13.875H4.625" stroke="#6A9C89" stroke-width="2.3125" stroke-linecap="round"/>
<path id="Vector_3" d="M24.6668 26.869C24.6668 29.0583 22.9412 30.8333 20.8127 30.8333C18.6841 30.8333 16.9585 29.0583 16.9585 26.869C16.9585 24.6795 18.6841 22.9046 20.8127 22.9046C22.9412 22.9046 24.6668 24.6795 24.6668 26.869ZM24.6668 26.869V16.9583" stroke="#6A9C89" stroke-width="2.3125"/>
<path id="Vector_4" d="M28.7905 12.5122L26.0856 13.8106C25.5588 14.0634 25.2955 14.1898 25.1051 14.3847C24.9525 14.5411 24.8347 14.7282 24.7598 14.9335C24.6665 15.1894 24.6665 15.4817 24.6665 16.066C24.6665 17.4171 24.6665 18.0926 24.9611 18.4979C25.1939 18.8184 25.5411 19.0369 25.9308 19.1081C26.4235 19.1983 27.0327 18.906 28.2509 18.3213L30.9557 17.0229C31.4825 16.77 31.7458 16.6436 31.9362 16.4488C32.0889 16.2924 32.2066 16.1053 32.2816 15.8999C32.3748 15.644 32.3748 15.3519 32.3748 14.7676C32.3748 13.4164 32.3748 12.7408 32.0802 12.3355C31.8474 12.0151 31.5002 11.7966 31.1105 11.7253C30.6178 11.6352 30.0087 11.9275 28.7905 12.5122Z" stroke="#6A9C89" stroke-width="2.3125" stroke-linecap="round"/>
<path id="Vector_5" d="M30.8333 6.16675H14.6458M4.625 6.16675H8.09375" stroke="#6A9C89" stroke-width="2.3125" stroke-linecap="round"/>
</g>
</svg>
