<svg width="25" height="25" viewBox="0 0 25 25" fill="none" xmlns="http://www.w3.org/2000/svg">
<g id="privacy-dashboard_svgrepo.com">
<g id="Group">
<path id="Vector" d="M19.7658 18.8151C18.4177 20.3659 16.6091 21.4451 14.6042 21.8951C12.5992 22.3451 10.5029 22.1423 8.62132 21.3164C6.73977 20.4903 5.1716 19.0843 4.1458 17.3038C3.12001 15.5232 2.69032 13.4614 2.91949 11.4193C3.14849 9.377 4.02445 7.46143 5.41944 5.95236C6.81444 4.44328 8.65538 3.41975 10.6734 3.03125M14.3231 3.03906C15.6783 3.30005 16.9616 3.8491 18.0861 4.64905C19.2107 5.44901 20.1503 6.4812 20.8414 7.67578C21.5325 8.87038 21.9589 10.1995 22.0918 11.5732C22.2247 12.9469 22.0609 14.3331 21.6116 15.638" stroke="white" stroke-width="2.0625" stroke-linecap="round"/>
<path id="Vector_2" d="M10.4165 11.9792V10.1173C10.4165 8.98823 11.3492 8.073 12.4998 8.073C13.6505 8.073 14.5832 8.98823 14.5832 10.1173V11.9792M9.89567 11.9792H15.104C15.6811 11.9792 16.1457 12.4438 16.1457 13.0209V15.8855C16.1457 16.4626 15.6811 16.9272 15.104 16.9272H9.89567C9.31859 16.9272 8.854 16.4626 8.854 15.8855V13.0209C8.854 12.4438 9.31859 11.9792 9.89567 11.9792Z" stroke="white" stroke-width="2.0625"/>
</g>
</g>
</svg>
