<svg width="35" height="35" viewBox="0 0 35 35" fill="none" xmlns="http://www.w3.org/2000/svg">
<g id="find_svgrepo.com">
<path id="Vector" d="M14.6344 26.3506C16.647 26.3524 18.6257 25.8324 20.3773 24.8412L25.2365 29.7004C25.8284 30.2923 26.6313 30.6249 27.4685 30.6249C28.3056 30.6249 29.1085 30.2923 29.7004 29.7004C30.2924 29.1084 30.625 28.3055 30.625 27.4684C30.625 26.6312 30.2924 25.8284 29.7004 25.2364L24.8413 20.3772C26.2309 17.9102 26.6798 15.0234 26.105 12.2509C25.5302 9.47842 23.9706 7.00798 21.7148 5.29673C19.459 3.58549 16.6597 2.74927 13.8348 2.94282C11.01 3.13637 8.35093 4.34659 6.34961 6.34953C4.71101 7.98807 3.59509 10.0757 3.14299 12.3485C2.69089 14.6213 2.92292 16.9771 3.80972 19.118C4.69652 21.2589 6.19826 23.0887 8.12505 24.3761C10.0518 25.6635 12.3171 26.3506 14.6344 26.3506ZM8.4117 8.41161C9.85127 6.97269 11.7452 6.07742 13.7709 5.87831C15.7965 5.67921 17.8285 6.1886 19.5207 7.3197C21.2129 8.4508 22.4606 10.1336 23.0511 12.0815C23.6417 14.0293 23.5386 16.1217 22.7595 18.002C21.9804 19.8824 20.5734 21.4345 18.7783 22.3938C16.9831 23.3532 14.9109 23.6604 12.9146 23.2632C10.9183 22.866 9.12154 21.789 7.83033 20.2156C6.53911 18.6422 5.83338 16.6697 5.83336 14.6343C5.82983 13.4781 6.05592 12.3326 6.49852 11.2644C6.94112 10.1962 7.59142 9.22653 8.4117 8.41161Z" fill="white"/>
</g>
</svg>
