<?xml version="1.0" encoding="UTF-8"?>
<svg version="1.1" xmlns="http://www.w3.org/2000/svg" width="327" height="265">
<path d="M0 0 C2.5 0.125 2.5 0.125 3.5 1.125 C3.59801653 2.6662084 3.62631846 4.21190368 3.62698364 5.75622559 C3.63121338 7.25804634 3.63121338 7.25804634 3.63552856 8.79020691 C3.63350433 9.89777847 3.6314801 11.00535004 3.62939453 12.14648438 C3.63114685 13.30569901 3.63289917 14.46491364 3.63470459 15.65925598 C3.63912595 19.51243563 3.63618411 23.36556983 3.6328125 27.21875 C3.63348546 29.88293516 3.6344537 32.54711891 3.63571167 35.21130371 C3.63753322 40.80347186 3.63512745 46.39562682 3.63037109 51.98779297 C3.6249285 58.46172502 3.62669117 64.93562558 3.6321975 71.40955687 C3.63672906 76.95859405 3.63737897 82.50762174 3.63475883 88.05666018 C3.63319629 91.37495308 3.63339174 94.69322786 3.63629532 98.01152039 C3.63882017 101.70887414 3.63498361 105.40616647 3.62939453 109.10351562 C3.63141876 110.21108719 3.63344299 111.31865875 3.63552856 112.45979309 C3.63270874 113.46100693 3.62988892 114.46222076 3.62698364 115.49377441 C3.62660662 116.36910072 3.62622959 117.24442703 3.62584114 118.14627838 C3.5 120.125 3.5 120.125 2.5 121.125 C0 121.25 0 121.25 -2.5 121.125 C-4.11986179 119.50513821 -3.62601929 117.73267606 -3.62698364 115.49377441 C-3.62980347 114.49256058 -3.63262329 113.49134674 -3.63552856 112.45979309 C-3.63350433 111.35222153 -3.6314801 110.24464996 -3.62939453 109.10351562 C-3.63114685 107.94430099 -3.63289917 106.78508636 -3.63470459 105.59074402 C-3.63912595 101.73756437 -3.63618411 97.88443017 -3.6328125 94.03125 C-3.63348546 91.36706484 -3.6344537 88.70288109 -3.63571167 86.03869629 C-3.63753322 80.44652814 -3.63512745 74.85437318 -3.63037109 69.26220703 C-3.6249285 62.78827498 -3.62669117 56.31437442 -3.6321975 49.84044313 C-3.63672906 44.29140595 -3.63737897 38.74237826 -3.63475883 33.19333982 C-3.63319629 29.87504692 -3.63339174 26.55677214 -3.63629532 23.23847961 C-3.63882017 19.54112586 -3.63498361 15.84383353 -3.62939453 12.14648438 C-3.63141876 11.03891281 -3.63344299 9.93134125 -3.63552856 8.79020691 C-3.63270874 7.78899307 -3.62988892 6.78777924 -3.62698364 5.75622559 C-3.62660662 4.88089928 -3.62622959 4.00557297 -3.62584114 3.10372162 C-3.43511992 0.10482786 -3.01701442 0.15085072 0 0 Z " fill="#386546" transform="translate(212.5,71.875)"/>
<path d="M0 0 C2.5 0.125 2.5 0.125 3.5 1.125 C3.59801653 2.6662084 3.62631846 4.21190368 3.62698364 5.75622559 C3.63121338 7.25804634 3.63121338 7.25804634 3.63552856 8.79020691 C3.63350433 9.89777847 3.6314801 11.00535004 3.62939453 12.14648438 C3.63114685 13.30569901 3.63289917 14.46491364 3.63470459 15.65925598 C3.63912595 19.51243563 3.63618411 23.36556983 3.6328125 27.21875 C3.63348546 29.88293516 3.6344537 32.54711891 3.63571167 35.21130371 C3.63753322 40.80347186 3.63512745 46.39562682 3.63037109 51.98779297 C3.6249285 58.46172502 3.62669117 64.93562558 3.6321975 71.40955687 C3.63672906 76.95859405 3.63737897 82.50762174 3.63475883 88.05666018 C3.63319629 91.37495308 3.63339174 94.69322786 3.63629532 98.01152039 C3.63882017 101.70887414 3.63498361 105.40616647 3.62939453 109.10351562 C3.63141876 110.21108719 3.63344299 111.31865875 3.63552856 112.45979309 C3.63270874 113.46100693 3.62988892 114.46222076 3.62698364 115.49377441 C3.62660662 116.36910072 3.62622959 117.24442703 3.62584114 118.14627838 C3.5 120.125 3.5 120.125 2.5 121.125 C0 121.25 0 121.25 -2.5 121.125 C-4.11986179 119.50513821 -3.62601929 117.73267606 -3.62698364 115.49377441 C-3.62980347 114.49256058 -3.63262329 113.49134674 -3.63552856 112.45979309 C-3.63350433 111.35222153 -3.6314801 110.24464996 -3.62939453 109.10351562 C-3.63114685 107.94430099 -3.63289917 106.78508636 -3.63470459 105.59074402 C-3.63912595 101.73756437 -3.63618411 97.88443017 -3.6328125 94.03125 C-3.63348546 91.36706484 -3.6344537 88.70288109 -3.63571167 86.03869629 C-3.63753322 80.44652814 -3.63512745 74.85437318 -3.63037109 69.26220703 C-3.6249285 62.78827498 -3.62669117 56.31437442 -3.6321975 49.84044313 C-3.63672906 44.29140595 -3.63737897 38.74237826 -3.63475883 33.19333982 C-3.63319629 29.87504692 -3.63339174 26.55677214 -3.63629532 23.23847961 C-3.63882017 19.54112586 -3.63498361 15.84383353 -3.62939453 12.14648438 C-3.63141876 11.03891281 -3.63344299 9.93134125 -3.63552856 8.79020691 C-3.63270874 7.78899307 -3.62988892 6.78777924 -3.62698364 5.75622559 C-3.62660662 4.88089928 -3.62622959 4.00557297 -3.62584114 3.10372162 C-3.43511992 0.10482786 -3.01701442 0.15085072 0 0 Z " fill="#386546" transform="translate(114.5,71.875)"/>
<path d="M0 0 C2.31 0 4.62 0 7 0 C7 28.71 7 57.42 7 87 C4.69 87 2.38 87 0 87 C0 58.29 0 29.58 0 0 Z " fill="#3B5E44" transform="translate(193,72)"/>
<path d="M0 0 C2.31 0 4.62 0 7 0 C7 28.38 7 56.76 7 86 C4.69 86 2.38 86 0 86 C0 57.62 0 29.24 0 0 Z " fill="#3B5E44" transform="translate(127,73)"/>
<path d="M0 0 C2.31 0 4.62 0 7 0 C7 23.76 7 47.52 7 72 C4.69 72 2.38 72 0 72 C0 48.24 0 24.48 0 0 Z " fill="#3E5C44" transform="translate(176,80)"/>
<path d="M0 0 C2.31 0 4.62 0 7 0 C7 23.43 7 46.86 7 71 C4.69 71 2.38 71 0 71 C0 47.57 0 24.14 0 0 Z " fill="#2F5E45" transform="translate(222,122)"/>
<path d="M0 0 C2.31 0 4.62 0 7 0 C7 23.43 7 46.86 7 71 C4.69 71 2.38 71 0 71 C0 47.57 0 24.14 0 0 Z " fill="#2F5E46" transform="translate(98,122)"/>
<path d="M0 0 C2.31 0 4.62 0 7 0 C7 23.43 7 46.86 7 71 C4.69 71 2.38 71 0 71 C0 47.57 0 24.14 0 0 Z " fill="#3E5C44" transform="translate(144,80)"/>
<path d="M0 0 C2.31 0 4.62 0 7 0 C7 16.5 7 33 7 50 C4.69 50 2.38 50 0 50 C0 33.5 0 17 0 0 Z " fill="#2B6647" transform="translate(235,133)"/>
<path d="M0 0 C2.31 0 4.62 0 7 0 C7 16.5 7 33 7 50 C4.69 50 2.38 50 0 50 C0 33.5 0 17 0 0 Z " fill="#2B6647" transform="translate(85,133)"/>
<path d="M0 0 C2.31 0 4.62 0 7 0 C7 16.5 7 33 7 50 C4.69 50 2.38 50 0 50 C0 33.5 0 17 0 0 Z " fill="#425D44" transform="translate(160,91)"/>
<path d="M0 0 C2.31 0 4.62 0 7 0 C7 8.91 7 17.82 7 27 C4.69 27 2.38 27 0 27 C0 18.09 0 9.18 0 0 Z " fill="#257348" transform="translate(248,144)"/>
<path d="M0 0 C2.31 0 4.62 0 7 0 C7 8.91 7 17.82 7 27 C4.69 27 2.38 27 0 27 C0 18.09 0 9.18 0 0 Z " fill="#257348" transform="translate(72,144)"/>
<path d="M0 0 C2.31 0 4.62 0 7 0 C7.02887814 3.47914941 7.04675687 6.95826831 7.0625 10.4375 C7.07087891 11.43072266 7.07925781 12.42394531 7.08789062 13.44726562 C7.09111328 14.39150391 7.09433594 15.33574219 7.09765625 16.30859375 C7.10289307 17.18314209 7.10812988 18.05769043 7.11352539 18.95874023 C7 21 7 21 6 22 C3.5 22.125 3.5 22.125 1 22 C0 21 0 21 -0.11352539 18.95874023 C-0.10828857 18.08419189 -0.10305176 17.20964355 -0.09765625 16.30859375 C-0.09443359 15.36435547 -0.09121094 14.42011719 -0.08789062 13.44726562 C-0.07951172 12.45404297 -0.07113281 11.46082031 -0.0625 10.4375 C-0.05798828 9.44041016 -0.05347656 8.44332031 -0.04882812 7.41601562 C-0.03700007 4.94395151 -0.02051849 2.47200482 0 0 Z " fill="#70E29D" transform="translate(209,171)"/>
<path d="M0 0 C0 6.93 0 13.86 0 21 C-2.31 21 -4.62 21 -7 21 C-7 14.07 -7 7.14 -7 0 C-5 -1 -5 -1 0 0 Z " fill="#72E4A0" transform="translate(229,172)"/>
<path d="M0 0 C2.31 0.33 4.62 0.66 7 1 C7 7.93 7 14.86 7 22 C4.69 22 2.38 22 0 22 C0 14.74 0 7.48 0 0 Z " fill="#73E5A0" transform="translate(98,171)"/>
<path d="M0 0 C2.31 0.33 4.62 0.66 7 1 C7.02888146 4.31248187 7.04675799 7.62493167 7.0625 10.9375 C7.07087891 11.88302734 7.07925781 12.82855469 7.08789062 13.80273438 C7.09111328 14.70185547 7.09433594 15.60097656 7.09765625 16.52734375 C7.10289307 17.35999756 7.10812988 18.19265137 7.11352539 19.05053711 C7 21 7 21 6 22 C3.5 22.125 3.5 22.125 1 22 C0 21 0 21 -0.11352539 18.95874023 C-0.10828857 18.08419189 -0.10305176 17.20964355 -0.09765625 16.30859375 C-0.09443359 15.36435547 -0.09121094 14.42011719 -0.08789062 13.44726562 C-0.07951172 12.45404297 -0.07113281 11.46082031 -0.0625 10.4375 C-0.05798828 9.44041016 -0.05347656 8.44332031 -0.04882812 7.41601562 C-0.03700007 4.94395151 -0.02051849 2.47200482 0 0 Z " fill="#71E39E" transform="translate(111,171)"/>
<path d="M0 0 C2.5 0.125 2.5 0.125 3.5 1.125 C3.58631874 2.46767413 3.60706473 3.81474322 3.59765625 5.16015625 C3.59282227 6.37348633 3.59282227 6.37348633 3.58789062 7.61132812 C3.57951172 8.46146484 3.57113281 9.31160156 3.5625 10.1875 C3.55798828 11.04150391 3.55347656 11.89550781 3.54882812 12.77539062 C3.53700373 14.89195663 3.51906769 17.00848685 3.5 19.125 C2.84 18.795 2.18 18.465 1.5 18.125 C-1.10931266 19.01863605 -1.10931266 19.01863605 -3.5 20.125 C-3.52888514 16.97918577 -3.54675923 13.83340531 -3.5625 10.6875 C-3.57087891 9.78966797 -3.57925781 8.89183594 -3.58789062 7.96679688 C-3.59111328 7.11279297 -3.59433594 6.25878906 -3.59765625 5.37890625 C-3.60551147 4.19276733 -3.60551147 4.19276733 -3.61352539 2.98266602 C-3.43542099 0.06826522 -2.92353114 0.14617656 0 0 Z " fill="#74D193" transform="translate(114.5,71.875)"/>
<path d="M0 0 C2.31 0 4.62 0 7 0 C7.02684312 2.81256281 7.04676188 5.62487241 7.0625 8.4375 C7.07087891 9.23994141 7.07925781 10.04238281 7.08789062 10.86914062 C7.0965143 12.91295221 7.0522815 14.95683902 7 17 C6.67 17.33 6.34 17.66 6 18 C4.02 18 2.04 18 0 18 C0 12.06 0 6.12 0 0 Z " fill="#72CD8E" transform="translate(193,72)"/>
<path d="M0 0 C2.5 0.125 2.5 0.125 3.5 1.125 C3.57325168 3.98767567 3.59238205 6.825719 3.5625 9.6875 C3.55798828 10.49380859 3.55347656 11.30011719 3.54882812 12.13085938 C3.53700518 14.12893756 3.51906914 16.12697783 3.5 18.125 C1.19 18.455 -1.12 18.785 -3.5 19.125 C-3.52683987 16.14577407 -3.54676037 13.16678705 -3.5625 10.1875 C-3.57087891 9.33736328 -3.57925781 8.48722656 -3.58789062 7.61132812 C-3.59111328 6.80244141 -3.59433594 5.99355469 -3.59765625 5.16015625 C-3.60289307 4.4112915 -3.60812988 3.66242676 -3.61352539 2.89086914 C-3.43038747 0.04218825 -2.85084039 0.14254202 0 0 Z " fill="#74D193" transform="translate(212.5,71.875)"/>
<path d="M0 0 C2.31 0 4.62 0 7 0 C7 5.61 7 11.22 7 17 C4.69 17.33 2.38 17.66 0 18 C0 12.06 0 6.12 0 0 Z " fill="#71CB8D" transform="translate(127,73)"/>
<path d="M0 0 C1.32 0.66 2.64 1.32 4 2 C4 5.63 4 9.26 4 13 C1.69 13 -0.62 13 -3 13 C-3.08086147 11.20906809 -3.13912702 9.41710372 -3.1875 7.625 C-3.22230469 6.62726563 -3.25710937 5.62953125 -3.29296875 4.6015625 C-3.14794922 3.31378906 -3.14794922 3.31378906 -3 2 C-2.01 1.34 -1.02 0.68 0 0 Z " fill="#46B472" transform="translate(88,170)"/>
<path d="M0 0 C2.31 0.33 4.62 0.66 7 1 C7 4.63 7 8.26 7 12 C4.69 12 2.38 12 0 12 C0 8.04 0 4.08 0 0 Z " fill="#46B471" transform="translate(235,171)"/>
<path d="M0 0 C2.31 0 4.62 0 7 0 C7 3.3 7 6.6 7 10 C5.824375 10.2165625 5.824375 10.2165625 4.625 10.4375 C2.03578982 10.87798925 2.03578982 10.87798925 0 12 C0 8.04 0 4.08 0 0 Z " fill="#68BD7E" transform="translate(176,80)"/>
<path d="M0 0 C2.31 0 4.62 0 7 0 C7 2.97 7 5.94 7 9 C1.125 11 1.125 11 0 11 C0 7.37 0 3.74 0 0 Z " fill="#69BD7F" transform="translate(144,80)"/>
<path d="M0 0 C0 2.97 0 5.94 0 9 C-2.31 9.33 -4.62 9.66 -7 10 C-7 6.7 -7 3.4 -7 0 C-4.3333581 -1.33332095 -2.83319697 -0.67102033 0 0 Z " fill="#45B471" transform="translate(229,172)"/>
<path d="M0 0 C2.31 0.33 4.62 0.66 7 1 C7 3.97 7 6.94 7 10 C4.69 10.33 2.38 10.66 0 11 C0 7.37 0 3.74 0 0 Z " fill="#4CBB78" transform="translate(98,171)"/>
<path d="M0 0 C2.31 0 4.62 0 7 0 C7 2.97 7 5.94 7 9 C4.69 9.33 2.38 9.66 0 10 C0 6.7 0 3.4 0 0 Z " fill="#47B573" transform="translate(209,171)"/>
<path d="M0 0 C2.31 0.33 4.62 0.66 7 1 C7 3.64 7 6.28 7 9 C5.1875 10.0625 5.1875 10.0625 3 11 C2.01 10.67 1.02 10.34 0 10 C0 6.7 0 3.4 0 0 Z " fill="#4BBA76" transform="translate(111,171)"/>
<path d="M0 0 C2.31 0.33 4.62 0.66 7 1 C7 2.32 7 3.64 7 5 C4.69 5 2.38 5 0 5 C0 3.35 0 1.7 0 0 Z " fill="#5CCD89" transform="translate(235,178)"/>
<path d="M0 0 C0.66 0 1.32 0 2 0 C2.66 0.66 3.32 1.32 4 2 C4.66 1.34 5.32 0.68 6 0 C6.33 1.65 6.66 3.3 7 5 C4.69 5 2.38 5 0 5 C0 3.35 0 1.7 0 0 Z " fill="#5CCD89" transform="translate(85,178)"/>
<path d="M0 0 C1.98 0 3.96 0 6 0 C6.33 1.32 6.66 2.64 7 4 C6.34 3.67 5.68 3.34 5 3 C2.39068734 3.89363605 2.39068734 3.89363605 0 5 C0 3.35 0 1.7 0 0 Z " fill="#5FAC6D" transform="translate(111,87)"/>
<path d="M0 0 C1.98 0 3.96 0 6 0 C6 0.99 6 1.98 6 3 C4.02 3.33 2.04 3.66 0 4 C0 2.68 0 1.36 0 0 Z " fill="#60AE6F" transform="translate(209,87)"/>
<path d="M0 0 C0 0.66 0 1.32 0 2 C-2.31 2.33 -4.62 2.66 -7 3 C-7 2.01 -7 1.02 -7 0 C-2.25 -1.125 -2.25 -1.125 0 0 Z " fill="#59C986" transform="translate(229,179)"/>
</svg>
